<?xml version="1.0" encoding="UTF-8" standalone="no"?>
<svg
   version="1.2"
   width="174.46mm"
   height="145.35mm"
   viewBox="0 0 17446 14535"
   preserveAspectRatio="xMidYMid"
   fill-rule="evenodd"
   stroke-width="28.222"
   stroke-linejoin="round"
   xml:space="preserve"
   id="svg2091"
   sodipodi:docname="boat2.svg"
   inkscape:version="1.2.2 (732a01da63, 2022-12-09, custom)"
   xmlns:inkscape="http://www.inkscape.org/namespaces/inkscape"
   xmlns:sodipodi="http://sodipodi.sourceforge.net/DTD/sodipodi-0.dtd"
   xmlns="http://www.w3.org/2000/svg"
   xmlns:svg="http://www.w3.org/2000/svg"
   xmlns:ooo="http://xml.openoffice.org/svg/export"><sodipodi:namedview
   id="namedview2093"
   pagecolor="#ffffff"
   bordercolor="#000000"
   borderopacity="0.25"
   inkscape:showpageshadow="2"
   inkscape:pageopacity="0.0"
   inkscape:pagecheckerboard="0"
   inkscape:deskcolor="#d1d1d1"
   inkscape:document-units="mm"
   showgrid="false"
   inkscape:zoom="1.5072239"
   inkscape:cx="327.09142"
   inkscape:cy="260.08081"
   inkscape:window-width="1920"
   inkscape:window-height="1031"
   inkscape:window-x="0"
   inkscape:window-y="25"
   inkscape:window-maximized="1"
   inkscape:current-layer="layer3" />
 <defs
   class="ClipPathGroup"
   id="defs1795">
  <clipPath
   id="presentation_clip_path"
   clipPathUnits="userSpaceOnUse">
   <rect
   x="0"
   y="0"
   width="17446"
   height="14535"
   id="rect1789" />
  </clipPath>
  <clipPath
   id="presentation_clip_path_shrink"
   clipPathUnits="userSpaceOnUse">
   <rect
   x="17"
   y="14"
   width="17412"
   height="14506"
   id="rect1792" />
  </clipPath>
 </defs>
 <defs
   class="TextShapeIndex"
   id="defs1799">
  <g
   ooo:slide="id1"
   ooo:id-list="id3 id4 id5 id6 id7 id8 id9 id10 id11 id12 id13 id14 id15 id16 id17 id18 id19 id20 id21 id22 id23 id24 id25 id26 id27 id28 id29 id30 id31 id32 id33 id34 id35 id36 id37"
   id="g1797" />
 </defs>
 <defs
   class="EmbeddedBulletChars"
   id="defs1831">
  <g
   id="bullet-char-template-57356"
   transform="scale(0.00048828125,-0.00048828125)">
   <path
   d="M 580,1141 L 1163,571 580,0 -4,571 580,1141 Z"
   id="path1801" />
  </g>
  <g
   id="bullet-char-template-57354"
   transform="scale(0.00048828125,-0.00048828125)">
   <path
   d="M 8,1128 L 1137,1128 1137,0 8,0 8,1128 Z"
   id="path1804" />
  </g>
  <g
   id="bullet-char-template-10146"
   transform="scale(0.00048828125,-0.00048828125)">
   <path
   d="M 174,0 L 602,739 174,1481 1456,739 174,0 Z M 1358,739 L 309,1346 659,739 1358,739 Z"
   id="path1807" />
  </g>
  <g
   id="bullet-char-template-10132"
   transform="scale(0.00048828125,-0.00048828125)">
   <path
   d="M 2015,739 L 1276,0 717,0 1260,543 174,543 174,936 1260,936 717,1481 1274,1481 2015,739 Z"
   id="path1810" />
  </g>
  <g
   id="bullet-char-template-10007"
   transform="scale(0.00048828125,-0.00048828125)">
   <path
   d="M 0,-2 C -7,14 -16,27 -25,37 L 356,567 C 262,823 215,952 215,954 215,979 228,992 255,992 264,992 276,990 289,987 310,991 331,999 354,1012 L 381,999 492,748 772,1049 836,1024 860,1049 C 881,1039 901,1025 922,1006 886,937 835,863 770,784 769,783 710,716 594,584 L 774,223 C 774,196 753,168 711,139 L 727,119 C 717,90 699,76 672,76 641,76 570,178 457,381 L 164,-76 C 142,-110 111,-127 72,-127 30,-127 9,-110 8,-76 1,-67 -2,-52 -2,-32 -2,-23 -1,-13 0,-2 Z"
   id="path1813" />
  </g>
  <g
   id="bullet-char-template-10004"
   transform="scale(0.00048828125,-0.00048828125)">
   <path
   d="M 285,-33 C 182,-33 111,30 74,156 52,228 41,333 41,471 41,549 55,616 82,672 116,743 169,778 240,778 293,778 328,747 346,684 L 369,508 C 377,444 397,411 428,410 L 1163,1116 C 1174,1127 1196,1133 1229,1133 1271,1133 1292,1118 1292,1087 L 1292,965 C 1292,929 1282,901 1262,881 L 442,47 C 390,-6 338,-33 285,-33 Z"
   id="path1816" />
  </g>
  <g
   id="bullet-char-template-9679"
   transform="scale(0.00048828125,-0.00048828125)">
   <path
   d="M 813,0 C 632,0 489,54 383,161 276,268 223,411 223,592 223,773 276,916 383,1023 489,1130 632,1184 813,1184 992,1184 1136,1130 1245,1023 1353,916 1407,772 1407,592 1407,412 1353,268 1245,161 1136,54 992,0 813,0 Z"
   id="path1819" />
  </g>
  <g
   id="bullet-char-template-8226"
   transform="scale(0.00048828125,-0.00048828125)">
   <path
   d="M 346,457 C 273,457 209,483 155,535 101,586 74,649 74,723 74,796 101,859 155,911 209,963 273,989 346,989 419,989 480,963 531,910 582,859 608,796 608,723 608,648 583,586 532,535 482,483 420,457 346,457 Z"
   id="path1822" />
  </g>
  <g
   id="bullet-char-template-8211"
   transform="scale(0.00048828125,-0.00048828125)">
   <path
   d="M -4,459 L 1135,459 1135,606 -4,606 -4,459 Z"
   id="path1825" />
  </g>
  <g
   id="bullet-char-template-61548"
   transform="scale(0.00048828125,-0.00048828125)">
   <path
   d="M 173,740 C 173,903 231,1043 346,1159 462,1274 601,1332 765,1332 928,1332 1067,1274 1183,1159 1299,1043 1357,903 1357,740 1357,577 1299,437 1183,322 1067,206 928,148 765,148 601,148 462,206 346,322 231,437 173,577 173,740 Z"
   id="path1828" />
  </g>
 </defs>
 
 
<g
   inkscape:groupmode="layer"
   id="layer3"
   inkscape:label="Layer 1"
   style="display:inline"><path
     fill="#000000"
     stroke="none"
     d="m 541,12920 c 203,297 1214,1494 4405,1613 h 11 l 11,-1 c 4446,-537 6234,-2142 7425,-3483 l 541,789 430,628 108,157 54,78 13,20 c 5,6 14,18 21,27 14,18 31,36 49,51 70,65 163,102 257,108 94,8 192,-20 270,-73 78,-54 139,-135 166,-227 27,-90 25,-190 -10,-279 -9,-22 -19,-44 -31,-64 -6,-9 -14,-22 -18,-28 l -14,-20 -54,-78 -109,-157 -433,-625 -671,-967 c 82,-94 162,-186 242,-273 688,-695 1280,-1524 1775,-2365 l 1889,174 48,-52 c 18,-20 447,-494 518,-995 6,-45 9,-90 10,-136 v -35 c -7,-464 -263,-962 -275,-985 l -35,-68 -1058,-113 c 320,-770 539,-1437 653,-1875 l 24,-91 -74,-57 C 14931,2155 13096,980 11225,25 l -49,-25 -53,14 C 10677,136 9326,619 7744,1371 l -390,-571 -71,-4 c -26,-1 -665,-30 -1096,235 -433,265 -712,912 -723,939 l -30,71 265,402 C 4136,3349 2401,4585 1420,6022 -11,8119 44,10830 143,11951 c -292,463 -52,771 -15,813 22,26 144,153 413,156 z"
     id="path1840"
     style="display:inline" /></g><g
   inkscape:groupmode="layer"
   id="layer4"
   inkscape:label="Layer 2"
   style="display:inline"><path
     fill="#784b04"
     stroke="none"
     d="m 436,12027 -4,-52 C 333,10917 255,8237 1655,6183 2577,4832 4201,3638 5856,2683 l 133,202 c -1668,993 -3711,2443 -4427,3926 -211,216 -410,807 -569,1516 -266,961 -339,1823 -341,2471 -10,224 -13,427 -5,599 12,264 43,419 80,513 9,58 15,90 15,92 l 8,37 34,15 c 29,12 67,23 114,33 206,79 666,109 1247,109 323,0 685,-9 1061,-25 478,-11 995,-32 1523,-64 627,-38 1501,-107 2428,-223 l 123,-14 -3,-2 c 1071,-139 2201,-344 3094,-645 530,-178 1051,-462 1560,-850 47,70 95,139 142,209 l 60,88 c -155,113 -315,219 -478,315 -2758,1633 -8258,1577 -10495,1477 l -37,-2 -33,17 c -526,263 -724,119 -746,101 l -4,-6 1,2 c -23,-28 -144,-202 66,-505 z"
     id="path1847" /><path
     fill="#784b04"
     stroke="none"
     d="m 3493,13332 c 1265,0 2534,-94 3724,-279 1567,-244 2905,-638 3890,-1136 -173,146 -360,291 -562,433 -1855,942 -5405,1658 -8395,1370 -388,-158 -678,-331 -890,-488 732,66 1481,100 2233,100 z"
     id="path1854" /><path
     fill="#784b04"
     stroke="none"
     d="m 3542,13927 c 2212,0 4534,-445 6170,-1060 -1119,609 -2627,1121 -4767,1380 -948,-36 -1694,-170 -2275,-345 287,17 579,25 872,25 z"
     id="path1861" /><path
     fill="#784b04"
     stroke="none"
     d="m 1185,12748 c 2285,100 7807,146 10616,-1517 28,-17 57,-35 85,-52 -93,98 -190,197 -291,296 -2062,1335 -6429,2007 -10534,1595 -84,-75 -148,-143 -196,-198 96,-27 202,-66 320,-124 z"
     id="path1868" /><path
     fill="#784b04"
     stroke="none"
     d="M 1710,6836 C 2202,5849 3319,4839 4630,3926 l 73,57 v 254 l 167,130 c -375,232 -724,481 -1049,747 l -60,-5 -24,-2 c -8,-1 -23,-1 -34,-2 -23,0 -47,1 -71,5 -94,14 -182,61 -247,130 -66,68 -106,161 -115,255 -3,36 -1,72 4,107 -479,466 -891,977 -1235,1531 z"
     id="path1875" /><path
     fill="#784b04"
     stroke="none"
     d="m 8494,11537 c -435,78 -891,147 -1354,206 L 3208,8189 c 205,-268 417,-523 631,-756 z"
     id="path1882" /><path
     fill="#784b04"
     stroke="none"
     d="m 9905,11219 c -377,107 -793,202 -1233,285 L 3937,7330 c 170,-173 391,-356 650,-545 z"
     id="path1889" /><path
     fill="#784b04"
     stroke="none"
     d="m 11135,10729 c -267,149 -536,269 -808,360 -83,28 -169,55 -257,82 L 4707,6699 c 236,-167 498,-337 779,-507 z"
     id="path1896" /><path
     fill="#784b04"
     stroke="none"
     d="m 11225,9335 c 209,307 418,614 626,921 -193,147 -387,280 -583,396 l -5640,-4529 620,52 1041,83 z"
     id="path1903" /><path
     fill="#ffbf00"
     stroke="none"
     d="m 9256,6411 c 368,552 738,1102 1109,1652 71,106 143,212 214,318 l -2660,-2073 605,48 z"
     id="path1910" /><path
     fill="#784b04"
     stroke="none"
     d="m 2147,7231 c 330,-535 724,-1029 1182,-1481 3,6 6,11 10,17 52,79 131,141 222,170 23,8 46,13 69,17 11,1 26,3 34,4 l 23,2 95,8 190,16 232,20 c -490,370 -916,745 -1233,1111 -143,165 -276,332 -401,498 z"
     id="path1917" /><path
     fill="#784b04"
     stroke="none"
     d="m 3101,8093 -426,-385 c 128,-169 262,-336 404,-500 343,-396 804,-797 1330,-1187 l 321,27 634,53 c -637,390 -1230,808 -1583,1184 -232,249 -460,522 -680,808 z"
     id="path1924" /><path
     fill="#b85c00"
     stroke="none"
     d="m 9095,6170 -551,-53 -758,-71 -1516,-141 -1517,-136 -758,-67 -190,-17 -94,-8 -24,-3 c -8,0 -9,-1 -14,-1 -8,-2 -16,-4 -23,-6 -30,-10 -56,-31 -74,-58 -18,-26 -25,-58 -23,-90 4,-32 15,-62 38,-85 22,-23 52,-40 83,-45 8,-1 16,-2 24,-1 5,0 6,-1 14,0 l 24,2 94,8 190,16 759,64 1517,127 c 852,67 1704,137 2556,202 81,121 162,242 243,363 z"
     id="path1931" /><path
     fill="#784b04"
     stroke="none"
     d="m 6084,5316 -562,-50 c 92,-58 185,-115 278,-172 z"
     id="path1938" /><path
     fill="#784b04"
     stroke="none"
     d="m 4803,5201 -758,-67 -18,-1 c 300,-238 621,-462 963,-672 l 696,544 c -130,80 -258,160 -385,241 z"
     id="path1945" /><path
     fill="#ffbf00"
     stroke="none"
     d="M 8687,5559 C 8032,5496 7376,5436 6721,5375 l -1895,-1477 1286,-828 1233,1868 49,15 c 65,20 457,133 823,133 52,0 103,-2 153,-7 106,160 211,320 317,480 z"
     id="path1952" /><path
     fill="#ffbf00"
     stroke="none"
     d="m 6948,11763 c -1674,172 -5690,457 -6042,171 -22,-18 -96,-110 -115,-542 -57,-1280 393,-3870 836,-4438 z"
     id="path1959"
     style="display:inline" /><path
     fill="#b85c00"
     stroke="none"
     d="M 12296,10429 C 11713,9598 11134,8764 10547,7937 9377,6278 8200,4624 6998,2987 c 393,607 790,1211 1188,1814 -211,-5 -463,-52 -660,-107 L 5758,2014 c 78,-162 296,-567 578,-740 284,-174 701,-193 865,-194 l 1771,2598 c -45,220 -126,518 -225,747 -424,-589 -849,-1177 -1279,-1762 1104,1704 2231,3393 3366,5076 l 425,631 428,629 856,1259 861,1256 431,628 108,157 54,78 13,20 c 5,6 5,8 8,12 4,6 7,14 10,21 12,29 12,63 3,94 -9,31 -30,56 -56,75 -26,17 -57,27 -89,25 -32,-2 -64,-15 -88,-36 -6,-5 -11,-11 -16,-17 -3,-4 -4,-5 -9,-11 l -13,-20 -54,-78 -109,-157 -433,-625 z"
     id="path1966" /><path
     fill="#784b04"
     stroke="none"
     d="m 12782,10130 -17,-25 -196,-280 c 433,-413 856,-904 1268,-1472 l 44,-52 -4,-3 c 60,-84 121,-170 181,-258 80,-117 158,-234 234,-352 l 375,34 c -469,784 -1026,1551 -1666,2196 l -2,-2 c -8,10 -17,20 -26,30 -63,62 -126,124 -191,184 z"
     id="path1973" /><path
     fill="#784b04"
     stroke="none"
     d="m 11653,6588 c 404,29 807,56 1211,84 159,395 522,835 574,897 l 37,45 657,60 c -63,96 -127,191 -192,286 -58,86 -117,170 -176,252 z"
     id="path1980" /><path
     fill="#ffbf00"
     stroke="none"
     d="m 11892,8858 -436,-623 -439,-622 c -266,-377 -532,-753 -799,-1129 393,29 785,58 1177,86 l 2280,1754 c -219,254 -909,1037 -1200,1368 z"
     id="path1987" /><path
     fill="#b85c00"
     stroke="none"
     d="m 13619,7340 c -141,-174 -319,-425 -432,-647 724,48 1448,93 2172,134 -1763,-204 -3529,-387 -5295,-561 -92,-129 -184,-258 -276,-387 1872,141 3745,272 5620,380 -718,-84 -1436,-163 -2155,-240 139,-159 335,-324 503,-440 l 3192,342 c 75,163 250,589 203,917 -46,329 -297,664 -401,790 z"
     id="path1994"
     style="display:inline" /><path
     fill="#784b04"
     stroke="none"
     d="m 15508,5480 c 315,-668 553,-1256 709,-1667 2,-5 3,-10 4,-15 l 195,-69 c -124,442 -336,1069 -634,1780 z"
     id="path2001" /><path
     fill="#784b04"
     stroke="none"
     d="m 16164,3669 c -6,-6 -12,-12 -17,-17 -287,-284 -1546,-1137 -2641,-1833 -612,-389 -1178,-732 -1593,-966 -410,-232 -618,-327 -730,-362 l 6,-163 c 1772,912 3512,2024 5174,3306 z"
     id="path2008" /><path
     fill="#784b04"
     stroke="none"
     d="M 8101,1894 C 9259,1315 10291,883 10915,676 l -124,952 c -340,140 -1223,508 -2226,946 z"
     id="path2015" /><path
     fill="#784b04"
     stroke="none"
     d="m 8647,2694 c 925,-404 1743,-746 2122,-903 l -105,808 c -316,86 -910,318 -1640,648 z"
     id="path2022" /><path
     fill="#784b04"
     stroke="none"
     d="m 9273,3615 -167,-245 c 684,-307 1237,-524 1537,-616 l -114,867 c -275,81 -771,273 -1386,542 71,-238 111,-445 119,-490 z"
     id="path2029" /><path
     fill="#784b04"
     stroke="none"
     d="m 13683,5284 -43,28 c -22,15 -87,59 -172,124 -921,-700 -1850,-1351 -2655,-1782 l 124,-953 c 213,50 993,497 2195,1323 876,604 1568,1127 1885,1403 z"
     id="path2036" /><path
     fill="#784b04"
     stroke="none"
     d="m 15358,5463 -106,-11 c -43,-45 -104,-101 -188,-173 -446,-381 -1431,-1098 -2342,-1705 -1151,-765 -1587,-971 -1766,-1012 l 111,-852 c 261,91 1093,558 2362,1377 1288,832 2160,1468 2275,1613 -103,237 -218,494 -346,763 z"
     id="path2043" /><path
     fill="#784b04"
     stroke="none"
     d="m 15764,4558 c -84,-82 -247,-214 -561,-442 -372,-270 -882,-618 -1436,-980 -959,-627 -2229,-1411 -2653,-1559 -8,-2 -18,-6 -29,-9 l 120,-919 c 307,123 1168,611 2460,1440 1390,893 2297,1548 2411,1694 -82,216 -186,479 -312,775 z"
     id="path2050" /><path
     fill="#784b04"
     stroke="none"
     d="M 12561,5946 9920,3995 c 338,-136 598,-227 739,-261 808,421 1754,1081 2694,1794 -146,122 -316,283 -431,456 -120,-13 -241,-26 -361,-38 z"
     id="path2057" /><path
     fill="#784b04"
     stroke="none"
     d="m 9003,4549 c 29,-65 56,-133 80,-201 246,-108 476,-206 682,-290 l 2516,1858 c -576,-59 -1152,-118 -1728,-175 z"
     id="path2064" /><path
     fill="#ffbf00"
     stroke="none"
     d="m 10284,5715 c -220,-22 -439,-44 -659,-65 -229,-321 -459,-642 -690,-963 2,-2 3,-5 4,-7 z"
     id="path2071" /><path
     fill="#784b04"
     stroke="none"
     d="M 10970,508 C 10385,694 9281,1148 8022,1777 L 7909,1612 C 9325,942 10535,497 11044,336 Z"
     id="path2078" /></g></svg>
